<svg width="30" height="30" viewBox="0 0 30 30" fill="none" xmlns="http://www.w3.org/2000/svg">
<g id="Frame" clip-path="url(#clip0_275_122)">
<path id="Vector" d="M26.25 15C26.25 8.78906 21.2109 3.75 15 3.75V26.25C21.2109 26.25 26.25 21.2109 26.25 15ZM0 15C0 11.0218 1.58035 7.20644 4.3934 4.3934C7.20644 1.58035 11.0218 0 15 0C18.9782 0 22.7936 1.58035 25.6066 4.3934C28.4196 7.20644 30 11.0218 30 15C30 18.9782 28.4196 22.7936 25.6066 25.6066C22.7936 28.4196 18.9782 30 15 30C11.0218 30 7.20644 28.4196 4.3934 25.6066C1.58035 22.7936 0 18.9782 0 15Z" fill="black"/>
</g>
<defs>
<clipPath id="clip0_275_122">
<rect width="30" height="30" fill="white"/>
</clipPath>
</defs>
</svg>
